<?xml version="1.0" encoding="iso-8859-1"?>
<!-- Generator: Adobe Illustrator 19.0.0, SVG Export Plug-In . SVG Version: 6.00 Build 0)  -->
<svg version="1.1" id="Layer_1" xmlns="http://www.w3.org/2000/svg" xmlns:xlink="http://www.w3.org/1999/xlink" x="0px" y="0px"
	 viewBox="0 0 512 512" style="enable-background:new 0 0 512 512;" xml:space="preserve">
<g>
	<path style="fill:#CFF09E;" d="M465.57,268.792c17.093-1.771,30.372-16.388,30.011-34.031c-0.376-18.365-15.93-32.81-34.299-32.81
		H223.139v66.657v0.366v66.292v0.366v66.292v0.366l0,0c0,36.814,29.843,66.657,66.657,66.657h141.979
		c18.508,0,33.513-15.005,33.513-33.513l0,0c0-16.911-12.538-30.858-28.818-33.145h10.456c18.508,0,33.513-15.005,33.513-33.513l0,0
		c0-16.911-12.538-30.858-28.818-33.145h10.456c18.508,0,33.513-15.005,33.513-33.513l0,0
		C495.589,284.792,482.437,270.539,465.57,268.792z"/>
	<path style="fill:#CFF09E;" d="M223.141,201.951h94.975l14.539-37.282c7.849-20.128,11.903-41.535,11.956-63.138l0.044-18.078
		c0.041-22.349-18.099-40.468-40.447-40.404l0,0c-22.231,0-40.245,18.039-40.214,40.27l0,0c0.041,30.185-7.725,59.867-22.55,86.163
		L223.141,201.951z"/>
</g>
<g>
	<path style="fill:#507C5C;" d="M152.908,452.614H16.409C7.348,452.614,0,445.266,0,436.205V218.68
		c0-9.061,7.348-16.409,16.409-16.409h136.498c9.061,0,16.409,7.348,16.409,16.409v46.812c0,9.061-7.348,16.409-16.409,16.409
		s-16.409-7.348-16.409-16.409v-30.403H32.818v184.707h103.68v-75.945c0-9.061,7.348-16.409,16.409-16.409
		s16.409,7.348,16.409,16.409v92.354C169.317,445.268,161.969,452.614,152.908,452.614z"/>
	<path style="fill:#507C5C;" d="M411.221,285.203h-54.347c-9.061,0-16.409-7.348-16.409-16.409c0-9.061,7.348-16.409,16.409-16.409
		h54.347c9.061,0,16.409,7.348,16.409,16.409C427.63,277.855,420.284,285.203,411.221,285.203z"/>
	<path style="fill:#507C5C;" d="M512,302.121c0-12.824-4.801-24.569-12.789-33.44c8.177-9.148,13.044-21.255,12.778-34.254
		c-0.551-26.955-23.296-48.885-50.704-48.885H342.127l5.814-14.911c8.62-22.105,13.021-45.339,13.078-69.06l0.044-18.086
		c0.03-15.206-5.881-29.499-16.639-40.244c-10.719-10.709-24.953-16.6-40.052-16.6c-15.228,0.03-29.496,5.861-40.232,16.613
		c-10.699,10.712-16.58,24.949-16.559,40.089c0.038,27.3-7.028,54.301-20.434,78.085l-18.301,32.467
		c-0.013,0.021-0.02,0.046-0.033,0.069c-0.325,0.583-0.615,1.188-0.87,1.812c-0.039,0.097-0.069,0.195-0.107,0.292
		c-0.197,0.512-0.368,1.034-0.514,1.569c-0.046,0.166-0.089,0.331-0.128,0.499c-0.118,0.494-0.212,0.996-0.284,1.506
		c-0.021,0.149-0.051,0.299-0.069,0.448c-0.069,0.612-0.113,1.232-0.113,1.862v200.34c0,45.803,37.264,83.067,83.067,83.067h141.977
		c27.526,0,49.922-22.394,49.922-49.922c0-9.128-2.517-17.783-6.928-25.241c13.306-8.977,22.077-24.192,22.077-41.417
		c0-9.128-2.517-17.783-6.928-25.241C503.231,334.563,512,319.347,512,302.121z M255.737,177.54
		c16.181-28.705,24.711-61.295,24.665-94.245c-0.008-6.365,2.463-12.35,6.961-16.854c4.498-4.503,10.479-6.984,16.89-6.984
		c0.025,0,0.046,0,0.071,0c6.386,0,12.387,2.484,16.908,6.999c4.535,4.532,7.025,10.558,7.013,16.957l-0.044,18.078
		c-0.048,19.653-3.694,38.903-10.835,57.216L306.9,185.543h-55.673L255.737,177.54z M462.078,319.224h-10.456h-94.747
		c-9.061,0-16.409,7.348-16.409,16.409s7.348,16.409,16.409,16.409h93.314c7.945,1.536,13.841,8.572,13.841,16.736
		c0,9.43-7.671,17.103-17.102,17.103h-10.456h-79.598c-9.061,0-16.409,7.348-16.409,16.409c0,9.061,7.348,16.409,16.409,16.409
		h78.165c7.945,1.536,13.841,8.572,13.841,16.736c0,9.43-7.673,17.103-17.103,17.103H289.801c-27.707,0-50.248-22.541-50.248-50.248
		V218.36h78.564h143.169c9.677,0,17.706,7.507,17.893,16.736c0.18,8.835-6.537,16.467-15.297,17.376
		c-8.364,0.866-14.717,7.914-14.717,16.322c0,8.406,6.355,15.454,14.719,16.321c8.721,0.903,15.3,8.214,15.3,17.005
		C479.182,311.551,471.509,319.224,462.078,319.224z"/>
</g>
<g>
</g>
<g>
</g>
<g>
</g>
<g>
</g>
<g>
</g>
<g>
</g>
<g>
</g>
<g>
</g>
<g>
</g>
<g>
</g>
<g>
</g>
<g>
</g>
<g>
</g>
<g>
</g>
<g>
</g>
</svg>
