<svg xmlns="http://www.w3.org/2000/svg" xmlns:xlink="http://www.w3.org/1999/xlink" version="1.1" width="256" height="256" viewBox="0 0 256 256" xml:space="preserve">
<desc>Created with Fabric.js 1.7.22</desc>
<defs>
</defs>
<g transform="translate(128 128) scale(0.72 0.72)" style="">
	<g style="stroke: none; stroke-width: 0; stroke-dasharray: none; stroke-linecap: butt; stroke-linejoin: miter; stroke-miterlimit: 10; fill: none; fill-rule: nonzero; opacity: 1;" transform="translate(-175.05 -175.05) scale(3.89 3.89)" >
	<rect x="0" y="65.55" rx="0" ry="0" width="21.66" height="20.27" style="stroke: none; stroke-width: 1; stroke-dasharray: none; stroke-linecap: butt; stroke-linejoin: miter; stroke-miterlimit: 10; fill: rgb(87,242,105); fill-rule: nonzero; opacity: 1;" transform=" matrix(1 0 0 1 0 0) "/>
	<rect x="0" y="34.87" rx="0" ry="0" width="21.66" height="20.27" style="stroke: none; stroke-width: 1; stroke-dasharray: none; stroke-linecap: butt; stroke-linejoin: miter; stroke-miterlimit: 10; fill: rgb(255,215,114); fill-rule: nonzero; opacity: 1;" transform=" matrix(1 0 0 1 0 0) "/>
	<rect x="0" y="4.19" rx="0" ry="0" width="21.66" height="20.27" style="stroke: none; stroke-width: 1; stroke-dasharray: none; stroke-linecap: butt; stroke-linejoin: miter; stroke-miterlimit: 10; fill: rgb(235,84,104); fill-rule: nonzero; opacity: 1;" transform=" matrix(1 0 0 1 0 0) "/>
	<path d="M 88.989 10.299 H 31.796 c -0.558 0 -1.011 -0.453 -1.011 -1.011 c 0 -0.558 0.453 -1.011 1.011 -1.011 h 57.193 C 89.548 8.276 90 8.729 90 9.288 C 90 9.846 89.548 10.299 88.989 10.299 z" style="stroke: none; stroke-width: 1; stroke-dasharray: none; stroke-linecap: butt; stroke-linejoin: miter; stroke-miterlimit: 10; fill: rgb(235,84,104); fill-rule: nonzero; opacity: 1;" transform=" matrix(1 0 0 1 0 0) " stroke-linecap="round" />
	<path d="M 79.522 20.061 H 31.796 c -0.558 0 -1.011 -0.453 -1.011 -1.011 s 0.453 -1.011 1.011 -1.011 h 47.726 c 0.559 0 1.011 0.453 1.011 1.011 S 80.081 20.061 79.522 20.061 z" style="stroke: none; stroke-width: 1; stroke-dasharray: none; stroke-linecap: butt; stroke-linejoin: miter; stroke-miterlimit: 10; fill: rgb(235,84,104); fill-rule: nonzero; opacity: 1;" transform=" matrix(1 0 0 1 0 0) " stroke-linecap="round" />
	<path d="M 88.989 40.98 H 31.796 c -0.558 0 -1.011 -0.453 -1.011 -1.011 c 0 -0.558 0.453 -1.011 1.011 -1.011 h 57.193 c 0.559 0 1.011 0.453 1.011 1.011 C 90 40.527 89.548 40.98 88.989 40.98 z" style="stroke: none; stroke-width: 1; stroke-dasharray: none; stroke-linecap: butt; stroke-linejoin: miter; stroke-miterlimit: 10; fill: rgb(255,215,114); fill-rule: nonzero; opacity: 1;" transform=" matrix(1 0 0 1 0 0) " stroke-linecap="round" />
	<path d="M 79.522 50.742 H 31.796 c -0.558 0 -1.011 -0.452 -1.011 -1.011 s 0.453 -1.011 1.011 -1.011 h 47.726 c 0.559 0 1.011 0.452 1.011 1.011 S 80.081 50.742 79.522 50.742 z" style="stroke: none; stroke-width: 1; stroke-dasharray: none; stroke-linecap: butt; stroke-linejoin: miter; stroke-miterlimit: 10; fill: rgb(255,215,114); fill-rule: nonzero; opacity: 1;" transform=" matrix(1 0 0 1 0 0) " stroke-linecap="round" />
	<path d="M 88.989 71.66 H 31.796 c -0.558 0 -1.011 -0.452 -1.011 -1.011 s 0.453 -1.011 1.011 -1.011 h 57.193 c 0.559 0 1.011 0.452 1.011 1.011 S 89.548 71.66 88.989 71.66 z" style="stroke: none; stroke-width: 1; stroke-dasharray: none; stroke-linecap: butt; stroke-linejoin: miter; stroke-miterlimit: 10; fill: rgb(87,242,105); fill-rule: nonzero; opacity: 1;" transform=" matrix(1 0 0 1 0 0) " stroke-linecap="round" />
	<path d="M 79.522 81.423 H 31.796 c -0.558 0 -1.011 -0.452 -1.011 -1.011 s 0.453 -1.011 1.011 -1.011 h 47.726 c 0.559 0 1.011 0.452 1.011 1.011 S 80.081 81.423 79.522 81.423 z" style="stroke: none; stroke-width: 1; stroke-dasharray: none; stroke-linecap: butt; stroke-linejoin: miter; stroke-miterlimit: 10; fill: rgb(87,242,105); fill-rule: nonzero; opacity: 1;" transform=" matrix(1 0 0 1 0 0) " stroke-linecap="round" />
	<path d="M 13.566 51.573 H 8.09 c -0.378 0 -0.725 -0.211 -0.899 -0.548 c -0.173 -0.336 -0.145 -0.741 0.075 -1.05 l 4.994 -7.021 c 0.346 -0.486 0.395 -1.1 0.13 -1.641 c -0.12 -0.247 -0.488 -0.826 -1.295 -0.862 c -0.001 0 -0.002 0 -0.003 0 c -1.138 0 -1.991 0.855 -1.991 1.905 c 0 0.558 -0.453 1.011 -1.011 1.011 s -1.011 -0.453 -1.011 -1.011 c 0 -2.167 1.763 -3.929 3.929 -3.929 l 0.179 0.004 c 1.312 0.059 2.441 0.805 3.022 1.996 c 0.585 1.199 0.47 2.617 -0.3 3.699 l -3.858 5.425 h 3.516 c 0.558 0 1.011 0.452 1.011 1.011 S 14.125 51.573 13.566 51.573 z" style="stroke: none; stroke-width: 1; stroke-dasharray: none; stroke-linecap: butt; stroke-linejoin: miter; stroke-miterlimit: 10; fill: rgb(69,80,96); fill-rule: nonzero; opacity: 1;" transform=" matrix(1 0 0 1 0 0) " stroke-linecap="round" />
	<path d="M 10.77 82.254 c -1.677 0 -3.174 -1.133 -3.64 -2.754 c -0.155 -0.537 0.156 -1.097 0.692 -1.251 c 0.539 -0.153 1.098 0.156 1.251 0.692 c 0.219 0.76 0.916 1.291 1.697 1.291 c 0.98 0 1.778 -0.797 1.778 -1.778 c 0 -0.981 -0.797 -1.778 -1.778 -1.778 c -0.558 0 -1.011 -0.452 -1.011 -1.011 s 0.453 -1.011 1.011 -1.011 c 2.096 0 3.8 1.704 3.8 3.8 C 14.57 80.55 12.866 82.254 10.77 82.254 z" style="stroke: none; stroke-width: 1; stroke-dasharray: none; stroke-linecap: butt; stroke-linejoin: miter; stroke-miterlimit: 10; fill: rgb(69,80,96); fill-rule: nonzero; opacity: 1;" transform=" matrix(1 0 0 1 0 0) " stroke-linecap="round" />
	<path d="M 10.77 76.708 c -0.558 0 -1.011 -0.452 -1.011 -1.011 s 0.453 -1.011 1.011 -1.011 c 0.98 0 1.778 -0.797 1.778 -1.778 c 0 -0.981 -0.797 -1.778 -1.778 -1.778 c -0.781 0 -1.478 0.53 -1.697 1.29 c -0.154 0.536 -0.713 0.845 -1.251 0.692 c -0.537 -0.154 -0.847 -0.714 -0.692 -1.251 c 0.466 -1.622 1.963 -2.753 3.64 -2.753 c 2.096 0 3.8 1.704 3.8 3.8 C 14.57 75.004 12.866 76.708 10.77 76.708 z" style="stroke: none; stroke-width: 1; stroke-dasharray: none; stroke-linecap: butt; stroke-linejoin: miter; stroke-miterlimit: 10; fill: rgb(69,80,96); fill-rule: nonzero; opacity: 1;" transform=" matrix(1 0 0 1 0 0) " stroke-linecap="round" />
	<path d="M 10.83 20.892 c -0.558 0 -1.011 -0.453 -1.011 -1.011 v -9.124 l -1.443 1.062 c -0.451 0.33 -1.083 0.234 -1.414 -0.215 c -0.331 -0.45 -0.235 -1.083 0.215 -1.414 l 3.054 -2.247 c 0.308 -0.226 0.716 -0.259 1.056 -0.088 c 0.341 0.172 0.555 0.521 0.555 0.903 v 11.124 C 11.842 20.439 11.389 20.892 10.83 20.892 z" style="stroke: none; stroke-width: 1; stroke-dasharray: none; stroke-linecap: butt; stroke-linejoin: miter; stroke-miterlimit: 10; fill: rgb(69,80,96); fill-rule: nonzero; opacity: 1;" transform=" matrix(1 0 0 1 0 0) " stroke-linecap="round" />
</g>
</g>
</svg>