<?xml version="1.0" encoding="iso-8859-1"?>
<!-- Generator: Adobe Illustrator 19.0.0, SVG Export Plug-In . SVG Version: 6.00 Build 0)  -->
<svg version="1.1" id="Layer_1" xmlns="http://www.w3.org/2000/svg" xmlns:xlink="http://www.w3.org/1999/xlink" x="0px" y="0px"
	 viewBox="0 0 392.138 392.138" style="enable-background:new 0 0 392.138 392.138;" xml:space="preserve">
<g>
	<path style="fill:#2488FF;" d="M290.845,295.334l5.816,5.844l-90.96,90.96h181.48l-68.109-68.439
		c15.535-14.474,28.635-31.564,38.452-50.335c13.856-26.498,21.181-56.405,21.181-86.489C378.705,83.832,294.874,0,191.831,0
		S4.957,83.832,4.957,186.874c0,35.732,10.123,70.47,29.274,100.459c18.629,29.172,44.9,52.578,75.971,67.687l17.492-35.973
		C76.66,294.23,44.957,243.585,44.957,186.874C44.957,105.887,110.844,40,191.831,40s146.874,65.887,146.874,146.874
		C338.705,228.236,321.068,267.667,290.845,295.334z"/>
	<polygon style="fill:#005ECE;" points="296.661,301.178 290.845,295.334 205.701,209.778 205.701,392.138 	"/>
</g>
<g>
</g>
<g>
</g>
<g>
</g>
<g>
</g>
<g>
</g>
<g>
</g>
<g>
</g>
<g>
</g>
<g>
</g>
<g>
</g>
<g>
</g>
<g>
</g>
<g>
</g>
<g>
</g>
<g>
</g>
</svg>
